<svg xmlns="http://www.w3.org/2000/svg" xmlns:xlink="http://www.w3.org/1999/xlink" width="378" zoomAndPan="magnify" viewBox="0 0 283.5 283.500005" height="378" preserveAspectRatio="xMidYMid meet" version="1.0">
  <style>
    .logo-path {
      fill: #000000;
    }
    @media (prefers-color-scheme: dark) {
      .logo-path {
        fill: #ffffff;
      }
    }
  </style>
  <defs>
    <clipPath id="fd57645447">
      <path d="M 71 103 L 155 103 L 155 128.136719 L 71 128.136719 Z M 71 103 " clip-rule="nonzero"/>
    </clipPath>
    <clipPath id="77cc0fa3b4">
      <path d="M 1 0.84375 L 237.941406 0.84375 L 237.941406 115 L 1 115 Z M 1 0.84375 " clip-rule="nonzero"/>
    </clipPath>
    <clipPath id="fcd385dee5">
      <rect x="0" width="238" y="0" height="129"/>
    </clipPath>
  </defs>
  <g transform="matrix(1, 0, 0, 1, 22, 77)">
    <g clip-path="url(#fcd385dee5)">
      <g clip-path="url(#fd57645447)">
        <path class="logo-path" d="M 92.109375 103.507812 C 85.136719 105.757812 78.347656 107.820312 71.835938 109.671875 C 83.578125 121.121094 99.613281 128.15625 117.296875 128.15625 C 131.125 128.15625 143.949219 123.847656 154.503906 116.496094 C 148.308594 118.453125 141.71875 119.503906 134.882812 119.503906 C 118.511719 119.503906 103.554688 113.46875 92.109375 103.507812 Z M 92.109375 103.507812 " fill-opacity="1" fill-rule="nonzero"/>
      </g>
      <g clip-path="url(#77cc0fa3b4)">
        <path class="logo-path" d="M 237.269531 19.753906 C 234.402344 12.316406 207.730469 15.144531 170.609375 25.527344 C 171.972656 27.449219 173.222656 29.453125 174.359375 31.523438 C 189.972656 27.90625 200.21875 27.265625 201.441406 30.4375 C 202.664062 33.601562 194.644531 39.992188 180.667969 47.777344 C 166.4375 55.710938 146.007812 65.097656 122.863281 74.015625 C 107.265625 80.027344 92.4375 85.050781 79.570312 88.808594 C 78.527344 87.144531 77.5625 85.429688 76.675781 83.671875 C 75.222656 80.804688 73.988281 77.824219 72.972656 74.738281 C 72.375 72.917969 71.84375 71.050781 71.410156 69.160156 C 70.914062 67.066406 70.53125 64.921875 70.25 62.75 C 69.996094 60.753906 69.828125 58.734375 69.765625 56.683594 C 69.730469 55.910156 69.714844 55.132812 69.714844 54.34375 C 69.714844 32.1875 80.769531 12.617188 97.667969 0.847656 C 71.273438 9.179688 52.136719 33.851562 52.136719 63 C 52.136719 63.691406 52.152344 64.382812 52.171875 65.070312 C 52.238281 67.148438 52.394531 69.199219 52.652344 71.230469 C 19.484375 87.992188 -1.179688 103.261719 1.621094 110.53125 C 4.46875 117.917969 30.773438 115.183594 67.472656 104.984375 C 73.839844 103.214844 80.519531 101.21875 87.441406 99.019531 C 99.996094 95.023438 113.351562 90.335938 127.109375 85.035156 C 147.480469 77.191406 166.308594 68.929688 182.425781 60.960938 C 217.8125 43.449219 240.175781 27.300781 237.269531 19.753906 Z M 35.351562 94.417969 C 34.195312 91.417969 41.328125 85.527344 53.953125 78.304688 C 54.410156 80.226562 54.953125 82.113281 55.582031 83.964844 C 56.117188 85.535156 56.710938 87.078125 57.359375 88.59375 C 58.132812 90.410156 58.992188 92.179688 59.917969 93.902344 C 45.726562 97.003906 36.511719 97.417969 35.351562 94.417969 Z M 35.351562 94.417969 " fill-opacity="1" fill-rule="nonzero"/>
      </g>
    </g>
  </g>
</svg>
